<svg width="71" height="97" viewBox="0 0 71 97" fill="none" xmlns="http://www.w3.org/2000/svg">
<path d="M3.9788 1C-0.687862 13.5 -3.3212 41.4 23.4788 53C28.312 54.6667 40.7785 56.8 51.9785 52" stroke="black" stroke-width="1.5"/>
<path d="M51.9951 36.5987C38.8091 38.6374 13.182 49.9775 16.1618 79.0278C17.0703 84.059 17.9785 90.5 22.9785 96" stroke="black" stroke-width="1.5"/>
<path d="M37.7495 6.97224C37.7342 6.55831 37.3862 6.23518 36.9722 6.25051L30.2269 6.50034C29.8129 6.51567 29.4898 6.86366 29.5051 7.27759C29.5205 7.69152 29.8685 8.01465 30.2824 7.99931L36.2783 7.77724L36.5003 13.7731C36.5157 14.1871 36.8637 14.5102 37.2776 14.4949C37.6915 14.4795 38.0146 14.1315 37.9993 13.7176L37.7495 6.97224ZM24.5496 21.5103L37.5496 7.51034L36.4504 6.48966L23.4504 20.4897L24.5496 21.5103Z" fill="black"/>
</svg>
