<svg width="23" height="23" viewBox="0 0 23 23" fill="none" xmlns="http://www.w3.org/2000/svg">
<circle cx="11.5" cy="11.5" r="11.5" fill="#191718"/>
<path d="M7.37665 8C6.62273 8 6 8.62273 6 9.37665V13.0431C6 13.797 6.62273 14.4209 7.37665 14.4209H12.4181C13.172 14.4209 13.7913 13.797 13.7913 13.0431V9.37665C13.7913 8.62273 13.172 8 12.4181 8H7.37665Z" fill="white"/>
<path d="M15.1346 9.20551L16.0524 8.83829C16.2655 8.7535 16.5067 8.77928 16.6969 8.90761C16.8865 9.03651 17.0005 9.25076 17.0005 9.48049V12.9378C17.0005 13.167 16.8865 13.3812 16.6969 13.5101C16.5067 13.6385 16.2655 13.6648 16.0524 13.5795L15.1346 13.2122C14.8774 13.1097 14.709 12.8605 14.709 12.5838V9.83392C14.709 9.55721 14.8774 9.30864 15.1346 9.20551Z" fill="white"/>
</svg>
