<svg width="18" height="18" viewBox="0 0 18 18" fill="none" xmlns="http://www.w3.org/2000/svg">
<rect width="18" height="18" rx="5" fill="#DDEE6C"/>
<path d="M13.8531 13.1602L11.7473 11.0605C12.0477 10.6895 12.2827 10.2728 12.4525 9.81055C12.6223 9.34831 12.7071 8.86003 12.7071 8.3457C12.7071 7.74674 12.5929 7.18359 12.3643 6.65625C12.1358 6.12891 11.824 5.66829 11.429 5.27441C11.034 4.88053 10.572 4.56966 10.0431 4.3418C9.5142 4.11393 8.95266 4 8.35847 4C7.75775 4 7.19295 4.11393 6.66405 4.3418C6.13516 4.56966 5.6732 4.88053 5.27816 5.27441C4.88312 5.66829 4.57134 6.12891 4.3428 6.65625C4.11427 7.18359 4 7.74674 4 8.3457C4 8.93815 4.11427 9.49805 4.3428 10.0254C4.57134 10.5527 4.88312 11.0133 5.27816 11.4072C5.6732 11.8011 6.13516 12.112 6.66405 12.3398C7.19295 12.5677 7.75775 12.6816 8.35847 12.6816C8.86778 12.6816 9.3526 12.5986 9.81293 12.4326C10.2733 12.2666 10.6863 12.0371 11.0519 11.7441L11.0421 11.7539L13.1577 13.8535C13.2034 13.8991 13.2556 13.9349 13.3144 13.9609C13.3732 13.987 13.4352 14 13.5005 14C13.6376 14 13.7551 13.9512 13.8531 13.8535C13.951 13.7559 14 13.6419 14 13.5117C14 13.4401 13.9869 13.375 13.9608 13.3164C13.9347 13.2578 13.8988 13.2057 13.8531 13.1602ZM4.98923 8.3457C4.98923 7.87695 5.07738 7.44076 5.25367 7.03711C5.42997 6.62695 5.66993 6.27051 5.97356 5.96777C6.27718 5.66504 6.63467 5.42578 7.04603 5.25C7.45087 5.07422 7.88834 4.98633 8.35847 4.98633C8.82207 4.98633 9.25628 5.07422 9.66112 5.25C10.0725 5.42578 10.43 5.66504 10.7336 5.96777C11.0372 6.27051 11.2772 6.62695 11.4535 7.03711C11.6363 7.44076 11.7277 7.87695 11.7277 8.3457C11.7277 8.80794 11.6363 9.24089 11.4535 9.64453C11.2772 10.0547 11.0372 10.4111 10.7336 10.7139C10.43 11.0166 10.0725 11.2559 9.66112 11.4316C9.25628 11.6139 8.82207 11.7051 8.35847 11.7051C7.88834 11.7051 7.45087 11.6139 7.04603 11.4316C6.63467 11.2559 6.27718 11.0166 5.97356 10.7139C5.66993 10.4111 5.42997 10.0547 5.25367 9.64453C5.07738 9.24089 4.98923 8.80794 4.98923 8.3457Z" fill="black" fill-opacity="0.9"/>
</svg>
