<svg width="47" height="40" viewBox="0 0 47 40" fill="none" xmlns="http://www.w3.org/2000/svg">
<path d="M31.5117 37.9229C30.0198 37.9229 28.9513 37.8423 28.3061 37.681C27.661 37.4794 27.2376 37.1568 27.036 36.7132C26.8344 36.2697 26.7336 35.5439 26.7336 34.5359V5.44348C26.7336 4.39511 26.8344 3.64915 27.036 3.2056C27.2376 2.72174 27.661 2.39916 28.3061 2.23787C28.9513 2.07659 30.0198 1.99594 31.5117 1.99594V0H1.93548V10.1007H3.50804C3.99191 8.04425 4.5161 6.49185 5.0806 5.44348C5.64511 4.35478 6.49188 3.5685 7.6209 3.08464C8.70959 2.60077 10.2822 2.35884 12.3386 2.35884H17.0563C17.9837 2.35884 18.6087 2.49997 18.9312 2.78222C19.2135 3.06448 19.3546 3.60883 19.3546 4.41527V17.7215H13.3668C11.9555 17.7215 10.9071 17.5804 10.2217 17.2982C9.49587 16.9756 8.99184 16.4716 8.70959 15.7861C8.38701 15.1006 8.0846 14.0321 7.80234 12.5805H6.29027V25.4029H7.80234C8.0846 23.9513 8.38701 22.9029 8.70959 22.2578C8.99184 21.6126 9.49587 21.1489 10.2217 20.8667C10.9071 20.5441 11.9555 20.3828 13.3668 20.3828H19.3546V33.5681C19.3546 34.7778 19.2135 35.6447 18.9312 36.1689C18.6087 36.6931 17.9635 37.056 16.9958 37.2576C15.9877 37.4592 14.3345 37.56 12.0362 37.56C9.7378 37.56 7.94347 37.2778 6.65317 36.7132C5.32254 36.1487 4.29432 35.2616 3.56853 34.052C2.84273 32.8423 2.15725 31.0883 1.5121 28.79H2.47955e-05L0.725821 39.9188H31.5117V37.9229Z" fill="black"/>
<path d="M16.2572 37.9229C17.7491 37.9229 18.8177 37.8423 19.4628 37.681C20.108 37.4794 20.5313 37.1568 20.733 36.7132C20.9346 36.2697 21.0354 35.5439 21.0354 34.5359V5.44348C21.0354 4.39511 20.9346 3.64915 20.733 3.2056C20.5313 2.76206 20.108 2.45965 19.4628 2.29836C18.8177 2.09675 17.7491 1.99594 16.2572 1.99594V0H33.4344V1.99594C31.8215 1.99594 30.6723 2.07659 29.9869 2.23787C29.3417 2.39916 28.9183 2.72174 28.7167 3.2056C28.5151 3.64915 28.4143 4.39511 28.4143 5.44348V33.0238C28.4143 34.4754 28.5958 35.5237 28.9587 36.1689C29.3619 36.7737 29.9667 37.1568 30.7731 37.3181C31.5796 37.439 32.9707 37.4995 34.9465 37.4995C37.2448 37.4995 39.019 37.2374 40.269 36.7132C41.5593 36.1891 42.5674 35.3423 43.2931 34.173C44.0189 32.9633 44.6843 31.2093 45.2891 28.9109H46.8617L46.1963 39.9188H16.2572V37.9229Z" fill="black"/>
</svg>
