<svg width="328" height="91" viewBox="0 0 328 91" fill="none" xmlns="http://www.w3.org/2000/svg">
<path d="M301.729 34.3789C302.941 34.3789 303.809 34.3134 304.333 34.1824C304.857 34.0186 305.201 33.7566 305.365 33.3964C305.528 33.0362 305.61 32.4467 305.61 31.6279V7.99929C305.61 7.1478 305.528 6.54194 305.365 6.1817C305.201 5.78871 304.857 5.52671 304.333 5.39571C303.809 5.26472 302.941 5.19922 301.729 5.19922V3.57812H325.751V11.7818H324.474C324.081 10.1116 323.655 8.85077 323.197 7.99929C322.738 7.11506 322.05 6.47644 321.133 6.08345C320.249 5.69046 318.972 5.49396 317.302 5.49396H313.47C312.717 5.49396 312.209 5.60858 311.947 5.83783C311.718 6.06707 311.603 6.50919 311.603 7.16418V17.9715H316.467C317.613 17.9715 318.464 17.8568 319.021 17.6276C319.611 17.3656 320.02 16.9562 320.249 16.3995C320.511 15.8428 320.757 14.9749 320.986 13.7959H322.214V24.2102H320.986C320.757 23.0312 320.511 22.1798 320.249 21.6558C320.02 21.1318 319.611 20.7552 319.021 20.5259C318.464 20.2639 317.613 20.1329 316.467 20.1329H311.603V30.842C311.603 31.8244 311.718 32.5285 311.947 32.9543C312.209 33.38 312.733 33.6748 313.519 33.8385C314.338 34.0023 315.681 34.0841 317.547 34.0841C319.414 34.0841 320.871 33.8549 321.919 33.3964C323 32.9379 323.835 32.2174 324.425 31.2349C325.014 30.2525 325.571 28.8279 326.095 26.9612H327.323L326.734 36H301.729V34.3789Z" fill="black"/>
<path d="M265.185 34.3789C266.757 34.3789 267.838 34.3298 268.428 34.2315C269.05 34.1005 269.443 33.8713 269.607 33.5438C269.77 33.2163 269.852 32.594 269.852 31.6771V5.49396H267.494C265.89 5.49396 264.662 5.69046 263.81 6.08345C262.991 6.47644 262.369 7.09868 261.943 7.95016C261.55 8.80165 261.125 10.1116 260.666 11.8801H259.438V3.57812H286.309V11.8801H285.081C284.622 10.0789 284.18 8.7689 283.754 7.95016C283.361 7.09868 282.756 6.47644 281.937 6.08345C281.118 5.69046 279.906 5.49396 278.302 5.49396H275.845V31.6771C275.845 32.5285 275.96 33.1344 276.189 33.4946C276.419 33.8549 276.828 34.1005 277.417 34.2315C278.04 34.3298 279.088 34.3789 280.561 34.3789V36H265.185V34.3789Z" fill="black"/>
<path d="M230.298 34.3789C231.51 34.3789 232.378 34.3134 232.902 34.1824C233.426 34.0186 233.77 33.7566 233.934 33.3964C234.097 33.0362 234.179 32.4467 234.179 31.6279V8.04841C234.179 7.19693 234.097 6.59106 233.934 6.23082C233.77 5.83783 233.426 5.57583 232.902 5.44484C232.378 5.28109 231.51 5.19922 230.298 5.19922V3.57812H244.004V5.19922C242.792 5.19922 241.924 5.28109 241.4 5.44484C240.876 5.57583 240.533 5.83783 240.369 6.23082C240.238 6.59106 240.172 7.19693 240.172 8.04841V31.6279C240.172 32.4467 240.254 33.0525 240.418 33.4455C240.582 33.8058 240.926 34.0514 241.449 34.1824C241.973 34.3134 242.825 34.3789 244.004 34.3789V36H230.298V34.3789Z" fill="black"/>
<path d="M188.85 34.3789C190.062 34.3789 190.929 34.3134 191.453 34.1824C191.977 34.0186 192.321 33.7566 192.485 33.3964C192.649 33.0362 192.731 32.4467 192.731 31.6279V7.99929C192.731 7.1478 192.649 6.54194 192.485 6.1817C192.321 5.82145 191.977 5.57583 191.453 5.44484C190.929 5.28109 190.062 5.19922 188.85 5.19922V3.57812H202.801V5.19922C201.491 5.19922 200.558 5.26472 200.001 5.39571C199.477 5.52671 199.133 5.78871 198.969 6.1817C198.806 6.54194 198.724 7.1478 198.724 7.99929V30.3998C198.724 31.5788 198.871 32.4303 199.166 32.9543C199.493 33.4455 199.985 33.7566 200.64 33.8876C201.295 33.9859 202.424 34.035 204.029 34.035C205.896 34.035 207.337 33.8221 208.352 33.3964C209.4 32.9707 210.219 32.2829 210.808 31.3332C211.398 30.3507 211.938 28.9261 212.429 27.0594H213.707L213.166 36H188.85V34.3789Z" fill="black"/>
<path d="M147.162 34.3789C148.373 34.3789 149.241 34.3134 149.765 34.1824C150.289 34.0186 150.633 33.7566 150.797 33.3964C150.961 33.0362 151.042 32.4467 151.042 31.6279V7.99929C151.042 7.1478 150.961 6.54194 150.797 6.1817C150.633 5.78871 150.289 5.52671 149.765 5.39571C149.241 5.26472 148.373 5.19922 147.162 5.19922V3.57812H171.183V11.7818H169.906C169.513 10.1116 169.087 8.85077 168.629 7.99929C168.17 7.11506 167.483 6.47644 166.566 6.08345C165.681 5.69046 164.404 5.49396 162.734 5.49396H158.902C158.149 5.49396 157.641 5.60858 157.379 5.83783C157.15 6.06707 157.036 6.50919 157.036 7.16418V17.9715H161.899C163.045 17.9715 163.897 17.8568 164.453 17.6276C165.043 17.3656 165.452 16.9562 165.681 16.3995C165.943 15.8428 166.189 14.9749 166.418 13.7959H167.646V24.2102H166.418C166.189 23.0312 165.943 22.1798 165.681 21.6558C165.452 21.1318 165.043 20.7552 164.453 20.5259C163.897 20.2639 163.045 20.1329 161.899 20.1329H157.036V30.842C157.036 31.8244 157.15 32.5285 157.379 32.9543C157.641 33.38 158.165 33.6748 158.951 33.8385C159.77 34.0023 161.113 34.0841 162.98 34.0841C164.846 34.0841 166.304 33.8549 167.352 33.3964C168.432 32.9379 169.267 32.2174 169.857 31.2349C170.446 30.2525 171.003 28.8279 171.527 26.9612H172.755L172.166 36H147.162V34.3789Z" fill="black"/>
<path d="M261.492 86.3789C263.064 86.3789 264.144 86.3298 264.734 86.2315C265.356 86.1005 265.749 85.8713 265.913 85.5438C266.077 85.2163 266.158 84.594 266.158 83.6771V57.494H263.8C262.196 57.494 260.968 57.6905 260.116 58.0834C259.297 58.4764 258.675 59.0987 258.249 59.9502C257.856 60.8016 257.431 62.1116 256.972 63.8801H255.744V55.5781H282.615V63.8801H281.387C280.928 62.0789 280.486 60.7689 280.061 59.9502C279.668 59.0987 279.062 58.4764 278.243 58.0834C277.424 57.6905 276.212 57.494 274.608 57.494H272.152V83.6771C272.152 84.5285 272.266 85.1344 272.495 85.4946C272.725 85.8549 273.134 86.1005 273.724 86.2315C274.346 86.3298 275.394 86.3789 276.867 86.3789V88H261.492V86.3789Z" fill="black"/>
<path d="M218.732 77.7331H219.96C221.729 83.6279 224.725 86.5754 228.95 86.5754C230.718 86.5754 232.127 86.1005 233.175 85.1508C234.223 84.1683 234.747 82.8092 234.747 81.0735C234.747 79.567 234.288 78.3062 233.371 77.291C232.454 76.243 231.046 75.326 229.146 74.54L228.066 74.0979C225.249 72.9517 223.055 71.6581 221.483 70.2171C219.944 68.7761 219.174 66.762 219.174 64.1748C219.174 62.4391 219.567 60.8835 220.353 59.5081C221.172 58.0998 222.351 57.0027 223.89 56.2167C225.429 55.398 227.28 54.9886 229.441 54.9886C230.522 54.9886 231.439 55.0705 232.192 55.2343C232.945 55.398 233.731 55.6273 234.55 55.922C235.172 56.184 235.664 56.315 236.024 56.315C236.253 56.315 236.433 56.2495 236.564 56.1185C236.695 55.9875 236.81 55.7419 236.908 55.3816H237.891L238.382 64.2731H237.203C236.712 61.8824 235.86 60.0648 234.648 58.8203C233.437 57.5758 231.914 56.9536 230.08 56.9536C228.442 56.9536 227.116 57.4285 226.101 58.3782C225.086 59.2952 224.578 60.4905 224.578 61.9643C224.578 63.0777 224.889 64.0438 225.511 64.8626C226.134 65.6486 226.887 66.3035 227.771 66.8275C228.655 67.3188 229.769 67.8428 231.111 68.3995L232.536 68.989C235.058 70.037 237.006 71.2978 238.382 72.7715C239.79 74.2453 240.494 76.2266 240.494 78.7155C240.494 81.4992 239.561 83.8408 237.694 85.7403C235.86 87.6397 232.945 88.5895 228.95 88.5895C227.607 88.5895 226.51 88.4912 225.659 88.2947C224.807 88.0982 223.988 87.8362 223.202 87.5087C223.104 87.476 222.908 87.4105 222.613 87.3122C222.318 87.1813 222.04 87.1158 221.778 87.1158C221.45 87.1158 221.156 87.214 220.894 87.4105C220.664 87.5742 220.517 87.7707 220.452 88H219.42L218.732 77.7331Z" fill="black"/>
<path d="M188.61 86.3789C189.822 86.3789 190.69 86.3134 191.214 86.1824C191.738 86.0186 192.082 85.7566 192.245 85.3964C192.409 85.0362 192.491 84.4467 192.491 83.6279V60.0484C192.491 59.1969 192.409 58.5911 192.245 58.2308C192.082 57.8378 191.738 57.5758 191.214 57.4448C190.69 57.2811 189.822 57.1992 188.61 57.1992V55.5781H202.316V57.1992C201.104 57.1992 200.236 57.2811 199.712 57.4448C199.188 57.5758 198.844 57.8378 198.681 58.2308C198.55 58.5911 198.484 59.1969 198.484 60.0484V83.6279C198.484 84.4467 198.566 85.0525 198.73 85.4455C198.893 85.8058 199.237 86.0514 199.761 86.1824C200.285 86.3134 201.137 86.3789 202.316 86.3789V88H188.61V86.3789Z" fill="black"/>
<path d="M147.162 86.3789C148.373 86.3789 149.241 86.3134 149.765 86.1824C150.289 86.0186 150.633 85.7566 150.797 85.3964C150.961 85.0362 151.042 84.4467 151.042 83.6279V59.9993C151.042 59.1478 150.961 58.5419 150.797 58.1817C150.633 57.8215 150.289 57.5758 149.765 57.4448C149.241 57.2811 148.373 57.1992 147.162 57.1992V55.5781H161.113V57.1992C159.803 57.1992 158.87 57.2647 158.313 57.3957C157.789 57.5267 157.445 57.7887 157.281 58.1817C157.117 58.5419 157.036 59.1478 157.036 59.9993V82.3998C157.036 83.5788 157.183 84.4303 157.478 84.9543C157.805 85.4455 158.296 85.7566 158.951 85.8876C159.606 85.9859 160.736 86.035 162.341 86.035C164.208 86.035 165.649 85.8221 166.664 85.3964C167.712 84.9707 168.531 84.2829 169.12 83.3332C169.71 82.3507 170.25 80.9261 170.741 79.0594H172.018L171.478 88H147.162V86.3789Z" fill="black"/>
<path d="M71.2788 86.133C67.9041 86.133 65.4871 85.9506 64.0278 85.5857C62.5685 85.1297 61.6108 84.4 61.1548 83.3968C60.6987 82.3935 60.4707 80.7517 60.4707 78.4715V12.6653C60.4707 10.2939 60.6987 8.60658 61.1548 7.60329C61.6108 6.5088 62.5685 5.77914 64.0278 5.41431C65.4871 5.04948 67.9041 4.86707 71.2788 4.86707V0.352295H4.37807V23.1998H7.93517C9.02966 18.5482 10.2154 15.0367 11.4923 12.6653C12.7692 10.2027 14.6845 8.42417 17.2383 7.32967C19.7009 6.23518 23.258 5.68793 27.9096 5.68793H38.5809C40.6787 5.68793 42.0924 6.00716 42.8221 6.64562C43.4605 7.28407 43.7797 8.51537 43.7797 10.3395V40.438H38.2354C35.0432 40.438 32.6718 40.1188 31.1212 39.4803C29.4795 38.7507 28.3394 37.6106 27.7009 36.0601C26.9713 34.5095 26.2872 32.0925 25.6488 28.809H22.2285V57.813H25.6488C26.2872 54.5296 26.9713 52.1582 27.7009 50.6989C28.3394 49.2395 29.4795 48.1906 31.1212 47.5522C32.6718 46.8225 35.0432 46.4577 38.2354 46.4577H43.7797V76.2826C43.7797 79.0188 43.4605 80.9798 42.8221 82.1655C42.0924 83.3512 40.6331 84.172 38.4441 84.6281C36.1639 85.0841 32.4244 85.3121 27.2256 85.3121C22.0267 85.3121 17.968 84.6737 15.0494 83.3968C12.0395 82.1199 9.71372 80.1133 8.07198 77.3771C6.43025 74.6408 4.87972 70.6733 3.4204 65.4745H0.00012207L1.64185 90.6478H71.2788V86.133Z" fill="black"/>
<path d="M37 86.45C40.8024 86.45 43.5257 86.2662 45.17 85.8985C46.8142 85.4389 47.8933 84.7035 48.4071 83.6924C48.9209 82.6813 49.1779 81.0268 49.1779 78.7288V12.4091C49.1779 10.0192 48.9209 8.31869 48.4071 7.30757C47.8933 6.29646 46.8142 5.60707 45.17 5.23939C43.5257 4.7798 40.8024 4.55 37 4.55V0H80.7787V4.55C76.668 4.55 73.7391 4.73384 71.9921 5.10152C70.3478 5.46919 69.2688 6.20454 68.7549 7.30757C68.2411 8.31869 67.9842 10.0192 67.9842 12.4091V75.2818C67.9842 78.5909 68.4466 80.9808 69.3715 82.4515C70.3992 83.8303 71.9407 84.7035 73.996 85.0712C76.0514 85.347 79.5968 85.4848 84.6324 85.4848C90.4901 85.4848 95.0119 84.8874 98.1976 83.6924C101.486 82.4975 104.055 80.5672 105.905 77.9015C107.755 75.1439 109.451 71.1455 110.992 65.9061H115L113.304 91H37V86.45Z" fill="black"/>
</svg>
