<svg width="50" height="84" viewBox="0 0 50 84" fill="none" xmlns="http://www.w3.org/2000/svg">
<path d="M10.9569 45.875V13.664C10.9569 6.1171 17.078 0 24.6249 0C32.1718 0 38.2929 6.1172 38.2929 13.664V45.875C38.2929 53.4219 32.1718 59.539 24.6249 59.539C17.078 59.539 10.9569 53.4218 10.9569 45.875ZM49.0819 45.875C48.9061 44.4062 47.6639 43.3047 46.1874 43.3047C44.7109 43.3047 43.4686 44.4063 43.2929 45.875C43.2929 52.5742 39.7187 58.762 33.9179 62.113C28.1171 65.4607 20.9689 65.4607 15.1679 62.113C9.3671 58.7614 5.7929 52.5739 5.7929 45.875C5.61712 44.4062 4.371 43.3047 2.8945 43.3047C1.4179 43.3047 0.1757 44.4063 0 45.875C0 51.8555 2.1875 57.633 6.1602 62.109C10.129 66.5856 15.6016 69.4528 21.5432 70.1637V80.3747C21.5432 81.9841 22.8479 83.2888 24.4573 83.2888C26.0706 83.2888 27.3753 81.9841 27.3753 80.3747V70.2887C33.3675 69.6129 38.8983 66.7457 42.9023 62.2379C46.9101 57.7301 49.1092 51.902 49.0819 45.875Z" fill="white"/>
</svg>
