<svg width="66" height="39" viewBox="0 0 66 39" fill="none" xmlns="http://www.w3.org/2000/svg">
<path d="M42.7062 28.3203L38.4946 24.1211C39.0953 23.3789 39.5655 22.5456 39.905 21.6211C40.2445 20.6966 40.4143 19.7201 40.4143 18.6914C40.4143 17.4935 40.1858 16.3672 39.7287 15.3125C39.2716 14.2578 38.6481 13.3366 37.858 12.5488C37.0679 11.7611 36.144 11.1393 35.0862 10.6836C34.0284 10.2279 32.9053 10 31.7169 10C30.5155 10 29.3859 10.2279 28.3281 10.6836C27.2703 11.1393 26.3464 11.7611 25.5563 12.5488C24.7662 13.3366 24.1427 14.2578 23.6856 15.3125C23.2285 16.3672 23 17.4935 23 18.6914C23 19.8763 23.2285 20.9961 23.6856 22.0508C24.1427 23.1055 24.7662 24.0267 25.5563 24.8145C26.3464 25.6022 27.2703 26.224 28.3281 26.6797C29.3859 27.1354 30.5155 27.3633 31.7169 27.3633C32.7356 27.3633 33.7052 27.1973 34.6259 26.8652C35.5465 26.5332 36.3725 26.0742 37.1038 25.4883L37.0842 25.5078L41.3154 29.707C41.4068 29.7982 41.5113 29.8698 41.6288 29.9219C41.7463 29.974 41.8704 30 42.001 30C42.2752 30 42.5103 29.9023 42.7062 29.707C42.9021 29.5117 43 29.2839 43 29.0234C43 28.8802 42.9739 28.75 42.9216 28.6328C42.8694 28.5156 42.7976 28.4115 42.7062 28.3203ZM24.9785 18.6914C24.9785 17.7539 25.1548 16.8815 25.5073 16.0742C25.8599 15.2539 26.3399 14.541 26.9471 13.9355C27.5544 13.3301 28.2693 12.8516 29.0921 12.5C29.9017 12.1484 30.7767 11.9727 31.7169 11.9727C32.6441 11.9727 33.5126 12.1484 34.3222 12.5C35.145 12.8516 35.8599 13.3301 36.4672 13.9355C37.0744 14.541 37.5544 15.2539 37.907 16.0742C38.2726 16.8815 38.4554 17.7539 38.4554 18.6914C38.4554 19.6159 38.2726 20.4818 37.907 21.2891C37.5544 22.1094 37.0744 22.8223 36.4672 23.4277C35.8599 24.0332 35.145 24.5117 34.3222 24.8633C33.5126 25.2279 32.6441 25.4102 31.7169 25.4102C30.7767 25.4102 29.9017 25.2279 29.0921 24.8633C28.2693 24.5117 27.5544 24.0332 26.9471 23.4277C26.3399 22.8223 25.8599 22.1094 25.5073 21.2891C25.1548 20.4818 24.9785 19.6159 24.9785 18.6914Z" fill="#DBEF6C"/>
<path fill-rule="evenodd" clip-rule="evenodd" d="M38.4756 24.1221L42.6962 28.3303C42.7864 28.4202 42.8572 28.523 42.9087 28.6386C42.9601 28.7537 42.9859 28.882 42.9859 29.0234C42.9859 29.2798 42.8896 29.5042 42.6962 29.697C42.5029 29.8897 42.2714 29.9859 42.001 29.9859C41.8723 29.9859 41.7502 29.9602 41.6345 29.909C41.5186 29.8576 41.4155 29.7869 41.3254 29.697L37.1043 25.5078L37.1138 25.4983L37.095 25.4773C36.3649 26.0622 35.5403 26.5204 34.6211 26.8519C33.702 27.1834 32.734 27.3491 31.7169 27.3491C30.5173 27.3491 29.3896 27.1216 28.3337 26.6667C27.2775 26.2117 26.3551 25.5909 25.5663 24.8044C24.7775 24.018 24.155 23.0983 23.6986 22.0452C23.2423 20.9923 23.0141 19.8744 23.0141 18.6914C23.0141 17.4953 23.2423 16.371 23.6986 15.3181C24.155 14.265 24.7775 13.3453 25.5663 12.5588C26.3551 11.7724 27.2775 11.1516 28.3337 10.6966C29.3896 10.2416 30.5173 10.0141 31.7169 10.0141C32.9035 10.0141 34.0246 10.2416 35.0806 10.6966C36.1368 11.1516 37.0592 11.7724 37.848 12.5588C38.6368 13.3453 39.2593 14.265 39.7157 15.3181C40.172 16.371 40.4002 17.4953 40.4002 18.6914C40.4002 19.7185 40.2307 20.6934 39.8917 21.6162C39.5527 22.5393 39.0833 23.3713 38.4836 24.1122L38.4756 24.1221ZM41.3154 29.707C41.4068 29.7982 41.5113 29.8698 41.6288 29.9219C41.7463 29.974 41.8704 30 42.001 30C42.2752 30 42.5103 29.9023 42.7062 29.707C42.9021 29.5117 43 29.2839 43 29.0234C43 28.8802 42.9739 28.75 42.9216 28.6328C42.8694 28.5156 42.7976 28.4115 42.7062 28.3203L38.4946 24.1211C39.0953 23.3789 39.5655 22.5456 39.905 21.6211C40.2445 20.6966 40.4143 19.7201 40.4143 18.6914C40.4143 17.4935 40.1858 16.3672 39.7287 15.3125C39.2716 14.2578 38.6481 13.3366 37.858 12.5488C37.0679 11.7611 36.144 11.1393 35.0862 10.6836C34.0284 10.2279 32.9053 10 31.7169 10C30.5155 10 29.3859 10.2279 28.3281 10.6836C27.2703 11.1393 26.3464 11.7611 25.5563 12.5488C24.7662 13.3366 24.1427 14.2578 23.6856 15.3125C23.2285 16.3672 23 17.4935 23 18.6914C23 19.8763 23.2285 20.9961 23.6856 22.0508C24.1427 23.1055 24.7662 24.0267 25.5563 24.8145C26.3464 25.6022 27.2703 26.224 28.3281 26.6797C29.3859 27.1354 30.5155 27.3633 31.7169 27.3633C32.7356 27.3633 33.7052 27.1973 34.6259 26.8652C35.5327 26.5382 36.3478 26.0879 37.0709 25.5145C37.0746 25.5116 37.0784 25.5086 37.0821 25.5056C37.0893 25.4999 37.0966 25.4941 37.1038 25.4883L37.0843 25.5078L41.3154 29.707ZM25.4944 16.0686C25.141 16.8778 24.9643 17.7521 24.9643 18.6914C24.9643 19.6177 25.141 20.4855 25.4944 21.2946C25.8476 22.1165 26.3286 22.831 26.9371 23.4377C27.5457 24.0445 28.2621 24.524 29.0864 24.8762C29.898 25.2416 30.7749 25.4243 31.7169 25.4243C32.646 25.4243 33.5164 25.2416 34.3279 24.8762C35.1522 24.524 35.8686 24.0445 36.4772 23.4377C37.0857 22.831 37.5666 22.1166 37.9199 21.2948C38.2864 20.4856 38.4696 19.6178 38.4696 18.6914C38.4696 17.7521 38.2864 16.8777 37.9199 16.0685C37.5666 15.2467 37.0857 14.5323 36.4772 13.9255C35.8686 13.3188 35.1521 12.8393 34.3279 12.487C33.5163 12.1347 32.646 11.9585 31.7169 11.9585C30.7749 11.9585 29.898 12.1347 29.0864 12.487C28.2622 12.8393 27.5457 13.3188 26.9371 13.9255C26.3286 14.5323 25.8476 15.2467 25.4944 16.0686ZM25.5073 16.0742C25.1548 16.8815 24.9785 17.7539 24.9785 18.6914C24.9785 19.6159 25.1548 20.4818 25.5073 21.2891C25.8599 22.1094 26.3399 22.8223 26.9471 23.4277C27.5544 24.0332 28.2693 24.5117 29.0921 24.8633C29.9017 25.2279 30.7767 25.4102 31.7169 25.4102C32.6441 25.4102 33.5126 25.2279 34.3222 24.8633C35.145 24.5117 35.8599 24.0332 36.4672 23.4277C37.0744 22.8223 37.5544 22.1094 37.907 21.2891C38.2726 20.4818 38.4554 19.6159 38.4554 18.6914C38.4554 17.7539 38.2726 16.8815 37.907 16.0742C37.5544 15.2539 37.0744 14.541 36.4672 13.9355C35.8599 13.3301 35.145 12.8516 34.3222 12.5C33.5126 12.1484 32.6441 11.9727 31.7169 11.9727C30.7767 11.9727 29.9017 12.1484 29.0921 12.5C28.2693 12.8516 27.5544 13.3301 26.9471 13.9355C26.3399 14.541 25.8599 15.2539 25.5073 16.0742Z" fill="white"/>
<path fill-rule="evenodd" clip-rule="evenodd" d="M46.5 2H19.5C9.83502 2 2 9.83502 2 19.5C2 29.165 9.83502 37 19.5 37H46.5C56.165 37 64 29.165 64 19.5C64 9.83502 56.165 2 46.5 2ZM19.5 0C8.73045 0 0 8.73045 0 19.5C0 30.2696 8.73045 39 19.5 39H46.5C57.2696 39 66 30.2696 66 19.5C66 8.73045 57.2696 0 46.5 0H19.5Z" fill="#DBF06D"/>
</svg>
